<svg width="800" height="800" viewBox="0 0 256 256" xmlns="http://www.w3.org/2000/svg"><path d="M228.646 34.768a11.965 11.965 0 00-12.218-2.076L31.871 105.197a12 12 0 002.035 22.935L84 138.152v61.832a11.814 11.814 0 007.408 11.086 12.171 12.171 0 004.668.945 11.832 11.832 0 008.41-3.546l28.596-28.596 42.193 37.13a11.898 11.898 0 007.888 3.002 12.112 12.112 0 003.723-.59 11.898 11.898 0 008.013-8.74l37.614-164.133a11.972 11.972 0 00-3.867-11.774zm-196.371 81.95a3.866 3.866 0 012.522-4.075L203.972 46.18l-116.9 84.428-51.597-10.32a3.866 3.866 0 01-3.2-3.57zm66.553 86.095A4 4 0 0192 199.984V143.72l35.064 30.857zM224.715 44.755L187.1 208.888a4 4 0 01-6.541 2.11L94.405 135.18l129.663-93.645a3.807 3.807 0 01.647 3.219z"/></svg>