<?xml version="1.0" encoding="utf-8"?><svg viewBox="0 0 1705.333 1706.667" xmlns="http://www.w3.org/2000/svg" xmlns:xlink="http://www.w3.org/1999/xlink"><style>:root>svg{display:none}:root>svg:target{display:block}</style><svg fill="none" viewBox="0 0 24 24" id="adress" xmlns="http://www.w3.org/2000/svg"><path d="M12 13v8m0-8a5 5 0 1 0 0-10 5 5 0 0 0 0 10z" stroke="#7E74F1" stroke-width="1.5" stroke-linecap="round" stroke-linejoin="round"/></svg><svg version="1.0" viewBox="0 0 1279 1280" id="cat" xmlns="http://www.w3.org/2000/svg"><path d="M885.5 1.2c-2.7.5-9.6 1.8-15.3 2.9-36.6 6.9-75.7 29-120.2 68-6.3 5.6-22.5 20.6-36 33.4-27.1 25.8-36.5 34.1-50.3 44.4-36.1 27.1-82.7 48.5-145.2 66.6-23.1 6.7-63.3 16.6-91.5 22.6l-24.5 5.1-17.5-11c-37.1-23.2-67.8-38.8-107.9-54.7-60.5-23.9-126.1-39.3-157.6-37-22.7 1.7-37.9 7.5-50.7 19.4-12.1 11.1-19.9 26.4-24.6 48.6-2.5 11.4-2.6 13.6-2.6 41 0 35.9 2.9 66.7 10.9 114.7 11.9 71 29.3 132.9 58 205.8 7.4 18.8 11.5 34.8 11.5 44.9-.1 19.2-4.9 27.5-34.4 58.7-8.6 9.1-18.6 20.3-22.2 24.8-24.2 30.1-42.5 68.3-52.9 109.8C6.9 832 5.4 842.1 1 888c-1.3 13.3-1.3 33.4 0 45.3.5 5.1 1.4 15.7 2 23.7 3.1 40.4 9.5 78 24.9 146 3.3 14.6 6.7 31.6 7.6 37.9 1.8 13 4 19 9.3 24.5 3.4 3.5 11.9 8.3 12.9 7.2.3-.2-1.6-6.7-4-14.3-13.2-40.5-23.2-83.9-29.6-128.8C6.5 906.9 18.3 806.2 57.2 748c8.4-12.6 23.8-28.2 35.3-35.6 40.6-26.4 89.2-25.5 147.1 2.5 57.7 28 104.3 71.3 126.4 117.6 10.6 22.1 14.8 38.6 15.7 61.1.9 24.5-2.7 42.6-12.6 62.9-20.4 41.7-58.2 65.5-104.1 65.5-37.7 0-70.3-14.1-99.1-42.9-17.1-17.2-28.1-33.7-37.8-57.3-5.5-13-11.9-19.8-19-19.8-4.2 0-6.1 3.1-6.1 10.1 0 15.1 10 39 25.9 61.4 7.2 10.3 28.3 31.4 38.8 38.8 17.6 12.5 41.9 22.7 62.3 26.2 11.8 2 35.8 3.4 60.5 3.5 39.2 0 62.5 5.4 85.2 19.7 16.3 10.1 24.9 17.4 59.4 50.2 25 23.7 39.5 34.8 55.9 43.1 15 7.5 27.2 11 62.7 17.5 40.1 7.4 56.7 12.6 71.9 22.7 11.9 8 28.2 26.6 26.9 30.8-.9 2.9-10.7 41.5-11.2 44.1-.6 3 3.2 6.7 7.9 7.6 1.6.3 3.1 1 3.4 1.4 1.1 1.9 5.3.8 7.7-2 1.8-2.1 3.6-7.8 7-21.7 7.7-30.9 12.2-44.9 17.5-53.8 14.5-24.1 43.4-55.8 66.9-73.3 58.1-43.2 121.1-58.1 174.1-41.2 23.4 7.5 40.6 18.2 58.8 36.3 29.4 29.4 44.9 66.8 44.3 106.6l-.2 13.5 3.5 1.3c8.2 3.1 21-4.7 23.7-14.4 1.8-6.3 1.3-22.6-.9-33.4-5.4-26.4-19.7-56.4-39.3-82.5-6.6-8.7-30-32.5-36-36.5-2-1.4-3.7-3.3-3.7-4.2 0-1.6 30.9-56.9 71.8-128.3 33.1-57.9 40.4-65.9 60.2-66 7.3 0 9.3.4 14 2.7 10.9 5.3 20.7 17.4 25.1 31 2 6 2.4 9.3 2.3 18.3-.1 14-2.3 23.4-12.1 51-4.1 11.5-8.7 25.9-10.1 32-2.5 10.2-2.7 12.6-2.6 33.5 0 19.6.3 23.8 2.2 33 11.2 51.7 42.6 96.2 85.7 121.5 10.9 6.4 26 12.7 37.6 15.7 10.3 2.6 17 1.5 22-3.5 6.1-6 7.2-10.4 6.6-26.7-2.6-72.9-18.5-139-48.6-201.5-20.1-41.6-42.9-75.2-78-115-23.4-26.6-33.9-42.5-39.6-60.5-2.3-7.2-2.8-10.8-3.2-23-.6-17.7.8-26.4 10.1-63.1 12.5-49.2 16.8-86 14.6-124.9-3-52.8-13.4-92.3-44.8-171-36.2-90.7-41.1-110.8-45.2-187-2.4-45.1-3.2-56.4-5.1-73.4-1.1-9.8-3.1-23.3-4.4-30-13.7-68.8-48.1-115.3-97.3-131.5-16.8-5.6-39.9-8.2-51.7-5.9zm31.7 37.5c13.1 4.6 22.6 11 35.9 24.2 13.7 13.8 22.8 26.9 32.9 47.6 32.4 66.4 38.6 153.2 15.6 218.2-3 8.4-3.3 14.1-1 18.5.9 1.8 5.5 8.4 10.2 14.7 43.9 59.3 64.5 100.8 76.2 153.6 6.1 27.6 11.4 69.1 12.9 101.2 2.8 57.1-6.8 137.7-21.4 180.3-12.8 37.5-22.7 64.8-27.2 74.7-23.3 51.7-64.4 95.4-122.8 130.2-18.5 11.1-28.3 16.2-60.8 31.5-117.8 55.8-158.5 68.8-218.9 70.3-25 .6-39.9-.4-62.4-4.2-51.6-8.9-124.8-35-185.4-66.1-32.8-16.9-35.7-20.9-22.6-31.2 3.5-2.7 9-9.1 15.6-18.2 15.8-21.9 18.9-30.1 19.7-52.2.7-17.6-1.2-31.8-7.7-57.3-14-55-23.9-78.2-42.9-101-3.7-4.4-9.7-11.8-13.3-16.5-3.6-4.7-8-9.9-9.8-11.5-6.8-6.4-7.4-11.6-2.3-18.4 1.5-2 7.5-9 13.3-15.6 26.3-29.9 45.1-58.5 75.8-115 17.6-32.5 27-59.7 33.7-98 8.5-48.3 12.4-112.7 8.2-135.2-3.5-19.1-16.9-50.9-26.7-63.3-4.1-5.3-6-9.5-6-13.5 0-7.9 4.8-13.5 17.1-20 27.6-14.5 150.2-40.4 191.5-40.5 6.6 0 8.9-.5 13.2-2.6 7.7-3.8 17.5-15.1 31.8-36.6 14.1-21.2 18.5-26.7 38.1-48 14.2-15.4 33.1-33.2 48-45.1 26.8-21.3 67.1-45 90.3-53.1 12.6-4.4 19.6-5.6 31.5-5.2 9.1.2 12.5.8 19.7 3.3zM164.1 248.4c12.5 3.3 18 5.5 31.9 12.8 42.2 22.1 63 45.8 68.6 78 3.5 20.2-1.4 37.7-16.6 59-13.9 19.5-46.8 48.1-62.1 53.9-15.8 6.1-29.1-2.6-45.1-29.6-14.7-24.9-25.5-48.6-32.2-70.8-4.3-14.3-12.3-50.1-13.4-60.4-2.7-23.7 7.1-39.6 27.5-44.8 8.9-2.2 29.2-1.3 41.4 1.9z"/><path d="M885.2 98.1c-8.4 1.4-23.1 6.6-31.5 11.2-22 12-46.9 34.9-66.1 60.7-18.3 24.6-24.6 36.8-25.4 49.2-.8 13.5 4.3 20.1 21.5 27.9 5.3 2.4 27.6 13.3 49.6 24.2 47.3 23.4 52.2 25.1 69.2 25.2 11.4 0 12.3-.2 18.5-3.1 20.1-9.6 30.5-33.9 31.7-73.9.7-20.4-.4-31.1-5.7-57.5-6.8-33.8-10-43.5-17.6-52.6-8-9.9-25.6-14.4-44.2-11.3zm3.4 29.5c7.3 3.5 12.4 16.2 19.8 49.4 5.5 25.1 7.4 37.4 8.7 58.3 1.7 26.7.3 31.3-9.5 30.5-10.2-1-41.1-14.5-61.3-27-15-9.2-34.1-24.4-37.5-29.7-5.3-8.4-3.7-12.8 11.7-33.4 23.6-31.3 36-42.9 51.3-47.8 7.1-2.3 12.4-2.4 16.8-.3zm1.6 445.6c-3 1.1-8.8 4.4-13 7.4-4.3 3-11.5 7.7-16.2 10.5-22.2 13.4-32 25.4-32 39.2 0 11.7 6.4 19.7 16.6 20.5 5 .4 5.6.2 8.3-2.7 1.8-1.9 4.7-7.6 7.1-13.9 6.8-17.8 12.8-25 26.3-31.2 7.9-3.7 15.4-4.3 20.7-1.5 1.9 1 6.8 4.4 10.8 7.6 10.1 8.2 17.8 9.7 26.3 5.4 6.4-3.4 7.9-13 3.1-20.6-10.6-16.6-40.7-27.4-58-20.7zM1002 669c-12.3 2.1-47.2 13.5-57.7 18.9-7.4 3.7-9.1 8.7-5.3 16 5 10 11.1 10.6 27.3 2.6 9.9-4.8 12.5-5.7 22-7 11.6-1.6 22.6-6 25.3-10 2-3.1 2.9-12.9 1.4-16.4-1-2.6-5.6-5.4-7.9-5-.3.1-2.6.5-5.1.9zm-509.5 25.9c-17.6 2.9-29 9.9-40.2 24.8-6.7 8.9-13.8 22.1-14.8 27.4-1 5.1 1.5 10.2 6.5 13.5 6.7 4.4 15.1 2.8 18.8-3.6.9-1.7 3.3-5.8 5.2-9.2 5-8.8 16.5-19.9 24.8-24 5.6-2.8 8-3.4 15.1-3.7 8.9-.3 11.9.3 24.3 5 11.4 4.3 18.2 3.8 24.1-1.9 4.3-4.1 3.4-9.2-2.8-16-1.9-2.2-5.7-4.9-8.3-6-10.4-4.5-41.2-8.1-52.7-6.3zM1022 725c-1.4.4-12.8 3.5-25.5 6.9-12.6 3.4-24.4 7.1-26.1 8.2-3.5 2.1-6.8 8.9-5.9 11.9.3 1 2 2.3 3.7 2.9 5.5 1.9 11.5 1.3 20.7-2.3 9.6-3.7 19.4-6.1 21.7-5.2 2.4.9 23.6-1.4 26.5-3 5.1-2.6 5.1-11.9 0-17.3-2.5-2.7-3.6-3.1-7.8-3-2.6 0-5.9.4-7.3.9zm-296.4 8.6c-27.3 5.4-51.8 21.9-63 42.4-5.6 10.3-4.4 22.5 3 28.9 6.7 5.9 15.3 9 36.3 13.1 5.8 1.1 12.6 2.7 15.3 3.6 5.4 1.8 9.8 6.3 9.8 10.1 0 1.4 1.2 9.8 2.6 18.7 2.1 13.1 2.5 18.5 2.1 28.6-.4 11.3-.8 13.5-4 22.3-6 16.6-12.3 24.3-24.6 30-5.7 2.7-7.9 3.2-16.6 3.5-17.9.7-31.7-4.9-47.2-19-12.2-11.2-16.4-12.7-22-7.5-5.5 4.9-6.9 18.7-2.8 26.6 4.7 9.2 20.2 18.7 38 23.3 7.9 2 11.4 2.3 28 2.3 16.8 0 19.9-.3 26.8-2.3 15.9-4.6 23.8-10.4 29.4-21.6 7.8-15.6 16.8-25.2 25.7-27.5 3.9-.9 5.4-.8 12 1.4 7.2 2.3 8.9 2.5 28.9 2.5 25.6-.1 39.2-1.2 45.4-4 2.5-1.1 8-5.1 12.1-8.8 4.1-3.7 10.9-9.6 15.1-13 9.5-8 11.6-10.5 13.5-16.2 2.1-6.5 4.9-31.2 4.1-36.5-1.2-8.7-7.2-12.5-19.4-12.5-12.1 0-16.1 3.9-16.1 15.7 0 14.5-3.7 29.4-8.7 35.2-7.1 8.3-24.8 13.9-40.4 12.7-16.8-1.3-29.8-6.4-38.4-15-6.2-6.1-8-10.9-9.5-24.7-2.1-18.7 1.2-32.6 12.3-52.7 8.1-14.6 12.1-22.6 13.6-27.5 1.8-5.2 1.6-13.8-.2-17.2-3.6-6.9-12.8-12.4-25.4-15-8.4-1.8-26.5-1.8-35.7.1zM983 807c-5.3 1.3-8.3 5.4-7.7 10.3.6 4.6 3.2 8.5 7 10.7 2.1 1.2 3.8 1.2 11.4.2 10.9-1.6 15.6-.7 26.1 4.8 9.2 4.9 13.1 5.1 19.3 1.2 5.4-3.5 10.9-9.6 10.9-12.2 0-4.8-9.7-10-24.3-13.1-10.3-2.2-36.9-3.4-42.7-1.9zm-498 13.4c-29.3 10.6-56.2 31.7-53.6 42.1.9 3.7 6.4 4.3 14.5 1.7 12.7-4.1 50.5-21.1 53.4-24 6.8-6.9 3.4-22.2-5-22.2-1.5 0-5.7 1.1-9.3 2.4zm-2 63.3c-22.7 3.7-43.8 22.5-40.2 35.7 1.4 5 4.6 9.1 8.2 10.6 4.6 1.9 11.2-1 18.1-8.1 3.1-3.1 6.7-6.2 7.9-6.9 1.4-.7 7.2-1.3 14.4-1.4 13.2-.2 16.6-1.2 20.5-6.2 2.5-3.2 2.6-6.2.5-11.2-4.2-10.2-15.2-14.9-29.4-12.5zm14.1 63.4c-4.5 1.8-8.3 5.2-20.1 18.1-13.3 14.4-15.2 18-12.6 24.1 2.9 7.2 10.1 9.9 19.1 7.2 6.5-1.9 13-6.6 16.9-12.4 3.7-5.5 7.4-7.7 16.6-9.7 12.8-2.8 16-5.5 16-13.5 0-4-.4-5.1-2.7-6.9-4-3.1-8.3-4.7-17.5-6.5-9.1-1.7-12.3-1.8-15.7-.4zM301.3 833c-3.5 1.4-4.3 4.1-3.3 10.3 1.2 7.3 5.1 15.4 11.1 23 6 7.5 16.1 16.3 20.6 17.8 6.6 2.1 14.5-3.1 15.8-10.5 1.7-8.9-17.8-33.6-30.6-38.9-5-2-11-2.8-13.6-1.7zm-66.6 28.1c-2.2 1.3-4.7 6.8-4.7 10.2 0 1.7 1.8 4 6 7.6 6.9 6 10 10.9 13.5 21.1 4 11.7 7.7 14.5 17.7 13.4 7-.8 8.8-2.3 8.8-7 0-5.4-4.7-18.2-8.7-23.7-4.5-6.1-18.5-18.4-23.8-20.8-4.6-2.1-6.3-2.3-8.8-.8zm-65.8 32c-2 3.8-.5 10.4 3.9 17.1 5.6 8.5 8.7 15.7 11.3 25.8 2.8 10.8 4.9 13.4 10.4 12.7 15.1-2 13.2-27.5-3.4-45.8-9.7-10.8-19.4-15-22.2-9.8z"/></svg><svg fill="none" viewBox="0 0 24 24" id="mail" xmlns="http://www.w3.org/2000/svg"><path d="M3.293 5.293A.997.997 0 0 1 4 5h16c.276 0 .526.112.707.293m-17.414 0A.997.997 0 0 0 3 6v12a1 1 0 0 0 1 1h16a1 1 0 0 0 1-1V6a.997.997 0 0 0-.293-.707m-17.414 0 7.293 7.293a2 2 0 0 0 2.828 0l7.293-7.293" stroke="#7E74F1" stroke-width="1.5" stroke-linecap="round" stroke-linejoin="round"/></svg><svg fill="none" viewBox="0 0 24 24" id="phone" xmlns="http://www.w3.org/2000/svg"><path d="M14.5 6.5c.737.144 1.469.469 2 1 .531.531.856 1.263 1 2M15 3c1.532.17 2.91.911 4 2 1.09 1.089 1.828 2.469 2 4m0 7.477v2.71c.004 1.035-.928 1.9-1.974 1.806C10 21 3 13.935 3.008 4.969 2.913 3.93 3.774 3.001 4.808 3h2.715c.44-.004.865.151 1.198.437.947.812 1.556 3.57 1.322 4.667-.183.856-1.046 1.455-1.633 2.04a14.467 14.467 0 0 0 5.43 5.42c.587-.585 1.187-1.446 2.045-1.629 1.1-.234 3.877.376 4.686 1.329.287.338.44.77.428 1.213z" stroke="#7E74F1" stroke-width="1.5" stroke-linecap="round" stroke-linejoin="round"/></svg><svg fill="none" viewBox="0 0 24 24" id="portfolios-link" xmlns="http://www.w3.org/2000/svg"><path d="M15 16h2a4 4 0 0 0 0-8h-2m-7 4h8M9 8H7a4 4 0 1 0 0 8h2" stroke="#656D72" stroke-width="1.5" stroke-linecap="round" stroke-linejoin="round"/></svg><svg fill="none" viewBox="0 0 24 24" id="portfolios-nav" xmlns="http://www.w3.org/2000/svg"><path d="m10 17 5-5-5-5" stroke="#7E74F1" stroke-width="1.5" stroke-linecap="round" stroke-linejoin="round"/></svg><svg fill="none" viewBox="0 0 25 24" id="services-app" xmlns="http://www.w3.org/2000/svg"><g fill="#7E74F1"><path fill-rule="evenodd" clip-rule="evenodd" d="M14.088 3.252c-.651-.332-1.533-.337-2.19-.006C9.605 4.737 7.18 6.159 5.102 7.585c-.309.25-.528.612-.525 1.04.004.424.228.782.535 1.028 2.068 1.245 4.493 2.667 6.736 4.3.65.332 1.533.337 2.19.006 2.357-1.639 3.327-2.113 6.795-4.34.31-.249.529-.612.525-1.039-.004-.425-.227-.783-.535-1.028-2.003-1.393-4.428-2.815-6.735-4.3zm-1.522 1.257c.233-.117.614-.116.849.003 2.01 1.173 3.95 2.595 6.409 4.078-1.974 1.36-3.914 2.783-6.455 4.105a1.058 1.058 0 0 1-.848-.003c-2.319-1.32-4.371-2.741-6.41-4.078C8.15 7.107 9.606 6.16 12.567 4.51z"/><path d="M21.89 12.103a.701.701 0 0 1-.232.98l-5.925 3.614c-.793.363-1.769.837-2.733.837-.964 0-1.94-.474-2.798-.837l-5.86-3.573a.701.701 0 0 1-.232-.98.738.738 0 0 1 1.003-.227l5.86 3.574c.527.322 1.277.621 2.027.62.75 0 1.435-.299 1.963-.62l5.924-3.615a.738.738 0 0 1 1.003.227z"/><path d="M21.89 15.662a.701.701 0 0 1-.232.98l-5.13 3.13c-1.588.759-2.31 1.228-3.56 1.228s-2.878-.943-3.56-1.227l-5.066-3.09a.701.701 0 0 1-.232-.98.738.738 0 0 1 1.003-.226l5.065 3.09c.75.457 1.753.863 2.79.863 1.036 0 2.039-.406 2.788-.864l5.131-3.13a.738.738 0 0 1 1.003.226z"/></g></svg><svg fill="none" viewBox="0 0 25 24" id="services-crown" xmlns="http://www.w3.org/2000/svg"><path d="M4.5 19h16M4.5 5v11h16V5l-4 4-4-4-4 4-4-4z" stroke="#7E74F1" stroke-width="1.5" stroke-linecap="round" stroke-linejoin="round"/></svg><svg fill="none" viewBox="0 0 25 24" id="services-web" xmlns="http://www.w3.org/2000/svg"><path d="M21.5 12a9 9 0 0 1-9 9m9-9a9 9 0 0 0-9-9m9 9h-18m9 9a9 9 0 0 1-9-9m9 9s4-3 4-9-4-9-4-9m0 18s-4-3-4-9 4-9 4-9m-9 9a9 9 0 0 1 9-9" stroke="#7E74F1" stroke-width="1.5"/></svg><svg viewBox="0 0 48.605 48.605" id="social-facebook" xmlns="http://www.w3.org/2000/svg"><path d="M34.094 8.688h4.756V.005h-8.643c-.721-.03-9.51-.198-11.788 8.489-.033.091-.761 2.157-.761 6.983l-7.903.024v9.107l7.913-.023v24.021h12.087v-24h8v-9.131h-8v-2.873c0-1.786.753-3.914 4.339-3.914zm1.661 8.786v5.131h-8v24h-8.087V22.579l-7.913.023v-5.107l7.934-.023-.021-1.017c-.104-5.112.625-7.262.658-7.365 1.966-7.482 9.473-7.106 9.795-7.086l6.729.002v4.683h-2.756c-4.673 0-6.338 3.054-6.338 5.912v4.873h7.999z"/></svg><svg viewBox="0 0 24 24" fill="none" id="social-github" xmlns="http://www.w3.org/2000/svg"><path d="M16 22.027v-2.87a3.37 3.37 0 0 0-.94-2.61c3.14-.35 6.44-1.54 6.44-7a5.44 5.44 0 0 0-1.5-3.75 5.07 5.07 0 0 0-.09-3.77s-1.18-.35-3.91 1.48a13.38 13.38 0 0 0-7 0c-2.73-1.83-3.91-1.48-3.91-1.48A5.07 5.07 0 0 0 5 5.797a5.44 5.44 0 0 0-1.5 3.78c0 5.42 3.3 6.61 6.44 7a3.37 3.37 0 0 0-.94 2.58v2.87m0-2c-3 .973-5.5 0-7-3" stroke="#000" stroke-width="1.5" stroke-linecap="round" stroke-linejoin="round"/></svg><svg viewBox="0 0 45.959 45.959" id="social-linkedin" xmlns="http://www.w3.org/2000/svg"><path d="M5.392.492C2.268.492 0 2.647 0 5.614c0 2.966 2.223 5.119 5.284 5.119 1.588 0 2.956-.515 3.957-1.489.96-.935 1.489-2.224 1.488-3.653C10.659 2.589 8.464.492 5.392.492zm2.455 7.319c-.62.603-1.507.922-2.563.922C3.351 8.733 2 7.451 2 5.614c0-1.867 1.363-3.122 3.392-3.122 1.983 0 3.293 1.235 3.338 3.123-.001.862-.314 1.641-.883 2.196zM.959 45.467h8.988V12.422H.959v33.045zm2-31.045h4.988v29.044H2.959V14.422zm30.689-2c-4.168 0-6.72 1.439-8.198 2.792l-.281-2.792H15v33.044h9.959V28.099c0-.748.303-2.301.493-2.711 1.203-2.591 2.826-2.591 5.284-2.591 2.831 0 5.223 2.655 5.223 5.797v16.874h10v-18.67c0-9.878-6.382-14.376-12.311-14.376zm10.311 31.045h-6V28.593c0-4.227-3.308-7.797-7.223-7.797-2.512 0-5.358 0-7.099 3.75-.359.775-.679 2.632-.679 3.553v15.368H17V14.422h6.36l.408 4.044h1.639l.293-.473c.667-1.074 2.776-3.572 7.948-3.572 4.966 0 10.311 3.872 10.311 12.374v16.672z"/></svg><svg viewBox="0 0 256 256" id="social-telegram" xmlns="http://www.w3.org/2000/svg"><path d="M228.646 34.768a11.965 11.965 0 0 0-12.218-2.076L31.871 105.197a12 12 0 0 0 2.035 22.935L84 138.152v61.832a11.814 11.814 0 0 0 7.408 11.086 12.171 12.171 0 0 0 4.668.945 11.832 11.832 0 0 0 8.41-3.546l28.596-28.596 42.193 37.13a11.898 11.898 0 0 0 7.888 3.002 12.112 12.112 0 0 0 3.723-.59 11.898 11.898 0 0 0 8.013-8.74l37.614-164.133a11.972 11.972 0 0 0-3.867-11.774zm-196.371 81.95a3.866 3.866 0 0 1 2.522-4.075L203.972 46.18l-116.9 84.428-51.597-10.32a3.866 3.866 0 0 1-3.2-3.57zm66.553 86.095A4 4 0 0 1 92 199.984V143.72l35.064 30.857zM224.715 44.755 187.1 208.888a4 4 0 0 1-6.541 2.11L94.405 135.18l129.663-93.645a3.807 3.807 0 0 1 .647 3.219z"/></svg></svg>